<?xml version="1.0" standalone="no"?>
<!DOCTYPE svg PUBLIC "-//W3C//DTD SVG 20010904//EN"
 "http://www.w3.org/TR/2001/REC-SVG-20010904/DTD/svg10.dtd">
<svg version="1.0" xmlns="http://www.w3.org/2000/svg"
 width="920.000000pt" height="920.000000pt" viewBox="0 0 920.000000 920.000000"
 preserveAspectRatio="xMidYMid meet">
<metadata>
Created by potrace 1.16, written by Peter Selinger 2001-2019
</metadata>
<g transform="translate(0.000000,920.000000) scale(0.100000,-0.100000)"
fill="#000000" stroke="none">
<path d="M4304 8469 c-830 -44 -1591 -336 -2254 -865 -166 -132 -453 -418
-582 -579 -507 -633 -799 -1350 -868 -2134 -23 -262 -12 -665 26 -933 230
-1648 1530 -3001 3174 -3302 518 -95 1090 -84 1601 30 1289 288 2359 1224
2827 2475 302 804 321 1780 51 2599 -289 880 -880 1632 -1667 2122 -695 433
-1476 632 -2308 587z m376 -1321 c46 -23 249 -221 1256 -1230 1165 -1166 1202
-1205 1224 -1263 30 -83 25 -198 -13 -270 -19 -38 -313 -337 -1234 -1256
-1156 -1155 -1210 -1208 -1263 -1225 -35 -12 -82 -18 -127 -18 -130 2 -156 21
-469 336 -250 252 -273 278 -293 333 -30 80 -27 187 8 260 19 39 134 160 530
558 l505 507 -1320 0 c-1186 0 -1325 2 -1368 16 -60 21 -149 102 -184 168
l-27 51 0 420 0 420 30 53 c38 70 112 136 181 161 54 21 68 21 1372 21 l1317
0 -511 513 c-575 576 -550 544 -548 692 1 136 5 142 332 467 326 324 318 319
462 315 69 -2 95 -7 140 -29z"/>
</g>
</svg>
